<?xml version="1.0" encoding="UTF-8"?>
<svg width="1800px" height="400px" viewBox="0 0 1800 400" version="1.1" xmlns="http://www.w3.org/2000/svg" xmlns:xlink="http://www.w3.org/1999/xlink">
    <!-- Generator: Sketch 48.1 (47250) - http://www.bohemiancoding.com/sketch -->
    <title>Artboard</title>
    <desc>Created with Sketch.</desc>
    <defs></defs>
    <g id="Page-1" stroke="none" stroke-width="1" fill="none" fill-rule="evenodd">
        <g id="Artboard">
            <g id="Group-3" transform="translate(752.000000, 81.000000)">
                <g id="Group-2" transform="translate(61.000000, 0.000000)">
                    <polygon id="Polygon" stroke="#4958A7" stroke-width="3" points="82.5 0 140.836309 24.1636906 165 82.5 140.836309 140.836309 82.5 165 24.1636906 140.836309 0 82.5 24.1636906 24.1636906"></polygon>
                    <g id="Group" transform="translate(46.000000, 64.000000)" fill="#4958A7">
                        <polygon id="`" points="10.6666667 5 16 32 8.88888889 32 0 5"></polygon>
                        <polygon id="`" points="65.6666667 5 71 32 63.8888889 32 55 5"></polygon>
                        <text id="…" font-family="HelveticaNeueLTStd-Hv, Helvetica Neue LT Std" font-size="40.96" font-weight="600">
                            <tspan x="17.02" y="29">…</tspan>
                        </text>
                    </g>
                </g>
                <path d="M21.744,205.216 L18.72,205.216 C17.904,201.52 15.648,199.264 11.712,199.264 C5.904,199.264 3.024,204.544 3.024,209.824 C3.024,215.104 5.904,220.384 11.712,220.384 C15.456,220.384 18.528,217.456 18.912,213.328 L21.936,213.328 C21.12,219.28 17.232,222.928 11.712,222.928 C4.128,222.928 0,216.928 0,209.824 C0,202.72 4.128,196.72 11.712,196.72 C16.992,196.72 21.072,199.552 21.744,205.216 Z M36.624,196.72 C44.208,196.72 48.336,202.72 48.336,209.824 C48.336,216.928 44.208,222.928 36.624,222.928 C29.04,222.928 24.912,216.928 24.912,209.824 C24.912,202.72 29.04,196.72 36.624,196.72 Z M36.624,199.264 C30.816,199.264 27.936,204.544 27.936,209.824 C27.936,215.104 30.816,220.384 36.624,220.384 C42.432,220.384 45.312,215.104 45.312,209.824 C45.312,204.544 42.432,199.264 36.624,199.264 Z M52.848,222.208 L52.848,197.44 L55.632,197.44 L55.632,201.616 L55.776,201.616 C57.36,198.64 59.952,196.72 63.888,196.72 C67.152,196.72 70.08,198.304 70.992,201.568 C72.48,198.304 75.6,196.72 78.864,196.72 C84.288,196.72 87.072,199.552 87.072,205.408 L87.072,222.208 L84.048,222.208 L84.048,205.552 C84.048,201.472 82.512,199.264 78.192,199.264 C72.96,199.264 71.472,203.584 71.472,208.192 L71.472,222.208 L68.448,222.208 L68.448,205.408 C68.496,202.048 67.104,199.264 63.264,199.264 C58.032,199.264 55.92,203.2 55.872,208.384 L55.872,222.208 L52.848,222.208 Z M92.832,222.208 L92.832,197.44 L95.616,197.44 L95.616,201.616 L95.76,201.616 C97.344,198.64 99.936,196.72 103.872,196.72 C107.136,196.72 110.064,198.304 110.976,201.568 C112.464,198.304 115.584,196.72 118.848,196.72 C124.272,196.72 127.056,199.552 127.056,205.408 L127.056,222.208 L124.032,222.208 L124.032,205.552 C124.032,201.472 122.496,199.264 118.176,199.264 C112.944,199.264 111.456,203.584 111.456,208.192 L111.456,222.208 L108.432,222.208 L108.432,205.408 C108.48,202.048 107.088,199.264 103.248,199.264 C98.016,199.264 95.904,203.2 95.856,208.384 L95.856,222.208 L92.832,222.208 Z M143.28,196.72 C150.864,196.72 154.992,202.72 154.992,209.824 C154.992,216.928 150.864,222.928 143.28,222.928 C135.696,222.928 131.568,216.928 131.568,209.824 C131.568,202.72 135.696,196.72 143.28,196.72 Z M143.28,199.264 C137.472,199.264 134.592,204.544 134.592,209.824 C134.592,215.104 137.472,220.384 143.28,220.384 C149.088,220.384 151.968,215.104 151.968,209.824 C151.968,204.544 149.088,199.264 143.28,199.264 Z M159.456,222.208 L159.456,197.44 L162.48,197.44 L162.48,201.712 L162.576,201.712 C163.68,198.736 166.992,196.72 170.496,196.72 C177.456,196.72 179.568,200.368 179.568,206.272 L179.568,222.208 L176.544,222.208 L176.544,206.752 C176.544,202.48 175.152,199.264 170.256,199.264 C165.456,199.264 162.576,202.912 162.48,207.76 L162.48,222.208 L159.456,222.208 Z M197.28,210.4 L185.28,210.4 L185.28,207.616 L197.28,207.616 L197.28,210.4 Z M207.84,190 L207.84,197.44 L212.88,197.44 L212.88,199.984 L207.84,199.984 L207.84,216.688 C207.84,218.656 208.128,219.808 210.288,219.952 C211.152,219.952 212.016,219.904 212.88,219.808 L212.88,222.4 C211.968,222.4 211.104,222.496 210.192,222.496 C206.16,222.496 204.768,221.152 204.816,216.928 L204.816,199.984 L200.496,199.984 L200.496,197.44 L204.816,197.44 L204.816,190 L207.84,190 Z M233.088,212.608 L233.088,208.672 L232.992,208.672 C232.608,209.392 231.264,209.632 230.448,209.776 C225.312,210.688 218.928,210.64 218.928,215.488 C218.928,218.512 221.616,220.384 224.448,220.384 C229.056,220.384 233.136,217.456 233.088,212.608 Z M219.984,205.024 L216.96,205.024 C217.248,199.216 221.328,196.72 226.992,196.72 C231.36,196.72 236.112,198.064 236.112,204.688 L236.112,217.84 C236.112,218.992 236.688,219.664 237.888,219.664 C238.224,219.664 238.608,219.568 238.848,219.472 L238.848,222.016 C238.176,222.16 237.696,222.208 236.88,222.208 C233.808,222.208 233.328,220.48 233.328,217.888 L233.232,217.888 C231.12,221.104 228.96,222.928 224.208,222.928 C219.648,222.928 215.904,220.672 215.904,215.68 C215.904,208.72 222.672,208.48 229.2,207.712 C231.696,207.424 233.088,207.088 233.088,204.352 C233.088,200.272 230.16,199.264 226.608,199.264 C222.864,199.264 220.08,200.992 219.984,205.024 Z M252.096,219.376 C257.328,219.376 260.064,214.576 260.064,209.536 C260.064,204.688 257.808,199.264 252.096,199.264 C246.336,199.264 243.936,204.4 243.936,209.536 C243.936,214.528 246.528,219.376 252.096,219.376 Z M263.088,197.44 L263.088,220.192 C263.04,227.584 260.208,232.096 252.096,232.096 C247.152,232.096 242.256,229.888 241.824,224.608 L244.848,224.608 C245.52,228.256 248.736,229.552 252.096,229.552 C257.664,229.552 260.064,226.24 260.064,220.192 L260.064,216.832 L259.968,216.832 C258.576,219.856 255.648,221.92 252.096,221.92 C244.176,221.92 240.912,216.256 240.912,209.2 C240.912,202.384 244.944,196.72 252.096,196.72 C255.696,196.72 258.768,198.976 259.968,201.712 L260.064,201.712 L260.064,197.44 L263.088,197.44 Z M286.704,204.688 L283.68,204.688 C283.536,200.944 280.656,199.264 277.2,199.264 C274.512,199.264 271.344,200.32 271.344,203.536 C271.344,206.224 274.416,207.184 276.48,207.712 L280.512,208.624 C283.968,209.152 287.568,211.168 287.568,215.488 C287.568,220.864 282.24,222.928 277.632,222.928 C271.872,222.928 267.936,220.24 267.456,214.192 L270.48,214.192 C270.72,218.272 273.744,220.384 277.776,220.384 C280.608,220.384 284.544,219.136 284.544,215.68 C284.544,212.8 281.856,211.84 279.12,211.168 L275.232,210.304 C271.296,209.248 268.32,207.904 268.32,203.68 C268.32,198.64 273.264,196.72 277.632,196.72 C282.576,196.72 286.512,199.312 286.704,204.688 Z" id="common-tags" fill="#4958A7"></path>
            </g>
        </g>
    </g>
</svg>